<svg version="1.1" id="Layer_1" xmlns="http://www.w3.org/2000/svg" xmlns:xlink="http://www.w3.org/1999/xlink" x="0px" y="0px"
	 width="100%" viewBox="0 0 176 188" enable-background="new 0 0 176 188" xml:space="preserve">
<path fill="#D7CDCB" opacity="1.000000" stroke="none" 
	d="
M145.000000,0.999999 
	C155.575928,1.000000 166.151855,1.000000 177.000000,1.000000 
	C177.000000,7.351394 177.000000,13.706655 176.729767,20.587429 
	C176.639679,21.741964 176.819839,22.370983 177.000000,23.000000 
	C177.000000,28.022093 177.000000,33.044186 176.622787,38.534302 
	C175.491150,39.003960 174.736710,39.005600 173.976532,38.543732 
	C173.975769,34.064911 173.980759,30.049597 173.876083,25.821781 
	C173.583084,25.344231 173.358597,25.120472 172.984192,24.626928 
	C170.423370,23.233776 167.971329,22.151701 165.482727,21.053490 
	C165.433228,23.837406 162.724915,24.053850 159.475159,24.033552 
	C141.983353,23.924301 124.490631,23.964546 107.004753,23.556641 
	C107.965897,22.096428 108.739029,20.443649 109.910164,20.082876 
	C113.049271,19.115860 116.404457,18.866371 119.577385,17.984787 
	C120.781631,17.650192 122.735802,16.194427 122.625092,15.542129 
	C121.590546,9.446723 125.800987,10.465384 129.392059,9.916454 
	C135.484833,8.985118 139.266937,3.470799 144.896378,1.471148 
	C144.976593,1.442657 144.967438,1.162629 145.000000,0.999999 
z"/>
<path fill="#C2B9BA" opacity="1.000000" stroke="none" 
	d="
M94.000000,189.000000 
	C63.000000,189.000000 31.999998,189.000000 1.000000,189.000000 
	C1.000000,187.989624 1.000000,186.994812 1.411424,185.496384 
	C6.212158,184.142975 10.614615,183.355377 14.988120,182.430801 
	C24.973614,180.319855 34.948944,178.160095 44.916908,175.967880 
	C46.158501,175.694824 47.325989,175.092575 48.535683,174.665100 
	C51.071735,173.768951 53.553955,172.411499 56.163044,172.087814 
	C64.624924,171.037949 73.134094,170.369293 82.600235,169.460175 
	C83.830956,171.479980 86.036125,171.972015 88.278458,168.296997 
	C88.630745,172.999252 88.613503,177.409210 88.943161,181.793076 
	C89.030975,182.960785 90.181740,184.048569 90.968773,185.475098 
	C92.062042,186.851425 93.031021,187.925720 94.000000,189.000000 
z"/>
<path fill="#C6BCBD" opacity="1.000000" stroke="none" 
	d="
M88.038925,167.994904 
	C86.036125,171.972015 83.830956,171.479980 82.600235,169.460175 
	C73.134094,170.369293 64.624924,171.037949 56.163044,172.087814 
	C53.553955,172.411499 51.071735,173.768951 48.535683,174.665100 
	C47.325989,175.092575 46.158501,175.694824 44.916908,175.967880 
	C34.948944,178.160095 24.973614,180.319855 14.988120,182.430801 
	C10.614615,183.355377 6.212158,184.142975 1.411424,184.996384 
	C1.000000,178.645599 1.000000,172.291214 1.389732,165.466339 
	C2.558770,164.981796 3.338076,164.967712 4.416610,164.981720 
	C5.117772,165.020874 5.519704,165.031921 5.949074,165.020325 
	C5.976511,164.997650 5.997058,165.065796 6.322739,165.319366 
	C7.293218,165.701706 7.937904,165.942413 8.582829,165.943054 
	C32.457886,165.966995 56.332996,165.982040 80.207977,165.936005 
	C81.465912,165.933578 82.722794,165.387711 84.320084,165.046967 
	C85.117607,165.003555 85.575211,165.008011 86.124519,165.148438 
	C86.216217,165.284409 86.659081,165.274231 86.659081,165.274231 
	C86.659081,165.274231 86.860794,164.853683 86.932938,164.912231 
	C87.005089,164.970779 86.880196,164.829819 87.163681,164.920898 
	C87.640656,165.056335 87.834137,165.100723 88.028549,165.501373 
	C88.032623,166.570038 88.035774,167.282471 88.038925,167.994904 
z"/>
<path fill="#D9D0CE" opacity="1.000000" stroke="none" 
	d="
M144.531342,0.999999 
	C144.967438,1.162629 144.976593,1.442657 144.896378,1.471148 
	C139.266937,3.470799 135.484833,8.985118 129.392059,9.916454 
	C125.800987,10.465384 121.590546,9.446723 122.625092,15.542129 
	C122.735802,16.194427 120.781631,17.650192 119.577385,17.984787 
	C116.404457,18.866371 113.049271,19.115860 109.910164,20.082876 
	C108.739029,20.443649 107.965897,22.096428 106.543137,23.568527 
	C102.357422,24.004635 98.639862,24.032291 94.645660,23.903473 
	C93.257370,23.215740 92.145706,22.684484 90.726860,21.944633 
	C89.998192,21.047125 89.225510,20.364117 89.213806,19.668306 
	C89.150887,15.927897 89.479256,12.170736 89.229340,8.449118 
	C89.141075,7.134653 87.799904,5.904321 87.022125,4.272109 
	C87.008995,2.939093 87.004501,1.969546 87.000000,1.000000 
	C106.020897,1.000000 125.041786,1.000000 144.531342,0.999999 
z"/>
<path fill="#D5D8D8" opacity="1.000000" stroke="none" 
	d="
M86.531342,1.000000 
	C87.004501,1.969546 87.008995,2.939093 86.987045,4.370691 
	C86.960594,4.832742 86.952530,5.037270 86.487923,5.033216 
	C59.168480,5.029161 32.313648,5.029161 5.014099,5.029161 
	C5.014099,31.459068 5.014099,57.186531 4.762562,82.933784 
	C4.343066,82.962723 4.175106,82.971878 4.002044,82.513580 
	C3.992888,65.054726 4.008064,48.063271 3.960903,31.071991 
	C3.954879,28.901556 4.779183,26.052134 1.000000,26.000000 
	C1.000000,17.699648 1.000000,9.399295 1.000000,1.000000 
	C29.354156,1.000000 57.708420,1.000000 86.531342,1.000000 
z"/>
<path fill="#AAB9C3" opacity="1.000000" stroke="none" 
	d="
M94.468658,189.000000 
	C93.031021,187.925720 92.062042,186.851425 91.036926,185.400085 
	C90.980797,185.023041 91.117249,184.877777 91.577118,184.890259 
	C117.358772,184.920395 142.681183,184.855286 168.001740,185.041168 
	C171.991882,185.070450 173.094559,183.859650 173.042160,179.946823 
	C172.877197,167.628006 173.098328,155.304001 173.385040,143.321136 
	C173.736176,145.616348 173.536133,147.680634 174.119568,149.492691 
	C174.550812,150.832092 176.002777,151.842834 177.000000,153.000000 
	C177.000000,164.955719 177.000000,176.911423 177.000000,189.000000 
	C149.645905,189.000000 122.291611,189.000000 94.468658,189.000000 
z"/>
<path fill="#CDC3C1" opacity="1.000000" stroke="none" 
	d="
M177.000000,56.000000 
	C177.000000,78.020897 177.000000,100.041786 176.599548,122.499260 
	C175.471146,121.385094 174.353943,119.896622 174.093933,118.271042 
	C173.499878,114.557014 173.325302,110.775902 172.984924,107.047600 
	C172.989517,107.073158 172.937317,107.076515 172.973969,106.796646 
	C173.014648,106.328720 173.018677,106.140671 173.014557,105.701584 
	C172.999573,105.283257 172.992767,105.115952 173.016449,104.658432 
	C173.122421,103.987648 173.197861,103.607063 173.460175,102.843773 
	C173.757446,86.977577 173.867859,71.494087 174.355988,56.006996 
	C175.489120,56.002254 176.244568,56.001125 177.000000,56.000000 
z"/>
<path fill="#DBD1CE" opacity="1.000000" stroke="none" 
	d="
M1.000000,26.468658 
	C4.779183,26.052134 3.954879,28.901556 3.960903,31.071991 
	C4.008064,48.063271 3.992888,65.054726 3.711723,82.650116 
	C2.617669,83.502739 1.808834,83.751366 1.000000,84.000000 
	C1.000000,64.979103 1.000000,45.958210 1.000000,26.468658 
z"/>
<path fill="#C0C3C4" opacity="1.000000" stroke="none" 
	d="
M172.980316,107.022041 
	C173.325302,110.775902 173.499878,114.557014 174.093933,118.271042 
	C174.353943,119.896622 175.471146,121.385094 176.599548,122.967918 
	C177.000000,132.687561 177.000000,142.375122 177.000000,152.531342 
	C176.002777,151.842834 174.550812,150.832092 174.119568,149.492691 
	C173.536133,147.680634 173.736176,145.616348 173.322571,142.856964 
	C173.023483,130.376465 173.001892,118.699257 172.980316,107.022041 
z"/>
<path fill="#CEC4C3" opacity="1.000000" stroke="none" 
	d="
M4.117382,164.953629 
	C3.338076,164.967712 2.558770,164.981796 1.389732,164.997940 
	C1.000000,151.312439 1.000000,137.624878 1.373833,123.468918 
	C2.495321,123.003899 3.242977,123.007294 4.004840,123.477959 
	C4.051826,137.614700 4.084604,151.284164 4.117382,164.953629 
z"/>
<path fill="#D5CCC8" opacity="1.000000" stroke="none" 
	d="
M3.990633,123.010681 
	C3.242977,123.007294 2.495321,123.003899 1.373833,123.000259 
	C1.000000,110.312439 1.000000,97.624878 1.000000,84.468658 
	C1.808834,83.751366 2.617669,83.502739 3.716825,83.117569 
	C4.175106,82.971878 4.343066,82.962723 5.008617,83.049911 
	C5.662166,83.237854 5.818125,83.329460 5.969243,83.677216 
	C5.994743,84.273186 6.025083,84.613014 6.041145,85.219254 
	C6.028127,85.663528 6.029387,85.841385 6.018412,86.010414 
	C6.006178,86.001579 6.005514,86.026772 5.763043,86.094101 
	C5.352943,86.439697 5.185314,86.717957 5.009778,86.999123 
	C5.001872,87.002029 5.009293,87.019386 4.754865,87.343391 
	C4.330502,99.448494 4.160567,111.229584 3.990633,123.010681 
z"/>
<path fill="#D8CABD" opacity="1.000000" stroke="none" 
	d="
M177.000000,55.532394 
	C176.244568,56.001125 175.489120,56.002254 174.347931,55.538204 
	C173.968887,49.717762 173.975586,44.362503 173.982269,39.007240 
	C174.736710,39.005600 175.491150,39.003960 176.622787,39.001160 
	C177.000000,44.354931 177.000000,49.709858 177.000000,55.532394 
z"/>
<path fill="#D8CABD" opacity="1.000000" stroke="none" 
	d="
M177.000000,22.666668 
	C176.819839,22.370983 176.639679,21.741964 176.729767,21.056473 
	C177.000000,21.444445 177.000000,21.888889 177.000000,22.666668 
z"/>
<path fill="#D8CABD" opacity="1.000000" stroke="none" 
	d="
M94.922295,24.059948 
	C98.639862,24.032291 102.357422,24.004635 106.536606,23.965088 
	C124.490631,23.964546 141.983353,23.924301 159.475159,24.033552 
	C162.724915,24.053850 165.433228,23.837406 165.482727,21.053490 
	C167.971329,22.151701 170.423370,23.233776 172.907654,24.694315 
	C172.939880,25.072777 172.792801,25.212158 172.339752,25.190430 
	C146.253525,25.124834 120.620354,25.080969 94.978027,24.792347 
	C94.968880,24.547588 94.922295,24.059950 94.922295,24.059948 
z"/>
<path fill="#DABF90" opacity="1.000000" stroke="none" 
	d="
M173.976532,38.543732 
	C173.975586,44.362503 173.968887,49.717762 173.970230,55.541817 
	C173.867859,71.494087 173.757446,86.977577 173.357025,102.763123 
	C173.067032,103.065193 172.865829,102.904594 172.858459,102.443863 
	C172.894943,76.658958 172.938797,51.334789 173.233521,26.012585 
	C173.651505,26.021124 173.818619,26.027704 173.985748,26.034283 
	C173.980759,30.049597 173.975769,34.064911 173.976532,38.543732 
z"/>
<path fill="#D8CABD" opacity="1.000000" stroke="none" 
	d="
M173.876083,25.821781 
	C173.818619,26.027704 173.651505,26.021124 173.159607,25.819229 
	C172.834854,25.623915 172.792801,25.212158 172.792801,25.212158 
	C172.792801,25.212158 172.939880,25.072777 173.016418,25.005390 
	C173.358597,25.120472 173.583084,25.344231 173.876083,25.821781 
z"/>
<path fill="#AAB9C3" opacity="1.000000" stroke="none" 
	d="
M88.278458,168.296997 
	C88.035774,167.282471 88.032623,166.570038 88.273476,165.149628 
	C88.671860,162.635681 88.956490,160.829987 88.960243,159.023712 
	C88.993423,143.054718 88.953423,127.085556 89.002289,111.116646 
	C89.008911,108.951149 88.186241,106.141907 92.201050,105.860733 
	C94.013878,106.132614 95.445930,106.361595 96.460968,106.700783 
	C93.395561,106.922646 90.804733,106.570663 90.840210,110.781227 
	C91.048355,135.479095 91.047569,160.178741 91.117249,184.877777 
	C91.117249,184.877777 90.980797,185.023041 90.912643,185.098053 
	C90.181740,184.048569 89.030975,182.960785 88.943161,181.793076 
	C88.613503,177.409210 88.630745,172.999252 88.278458,168.296997 
z"/>
<path fill="#DA9709" opacity="1.000000" stroke="none" 
	d="
M86.032822,165.012466 
	C85.575211,165.008011 85.117607,165.003555 83.861969,164.951416 
	C75.438515,164.870346 67.812920,164.788879 60.187664,164.813171 
	C42.124043,164.870682 24.060583,164.978394 5.997058,165.065796 
	C5.997058,165.065796 5.976511,164.997650 5.808532,164.627396 
	C5.465610,162.117126 5.144578,159.977570 5.138128,157.837051 
	C5.066998,134.231247 5.044769,110.625298 5.009293,87.019386 
	C5.009293,87.019386 5.001872,87.002029 5.210697,86.877121 
	C5.678446,86.561775 5.873777,86.319962 6.005514,86.026772 
	C6.005514,86.026772 6.006178,86.001579 6.480306,86.076698 
	C10.610925,86.165443 14.267418,86.191803 17.923904,86.190582 
	C39.198776,86.183510 60.473663,86.179451 81.748505,86.147034 
	C84.541389,86.142784 87.165550,86.001846 87.144493,90.047531 
	C87.014717,114.974747 86.959930,139.902344 86.880196,164.829819 
	C86.880196,164.829819 87.005089,164.970779 86.717102,164.903168 
	C86.429123,164.835556 86.032822,165.012466 86.032822,165.012466 
M55.082970,110.473480 
	C51.811989,116.882103 48.541012,123.290733 44.786671,130.646378 
	C40.719181,122.673187 37.404636,115.785988 33.661777,109.140007 
	C32.827824,107.659218 30.598598,106.522057 28.813173,106.129143 
	C26.484749,105.616722 23.958385,106.003731 21.234201,106.003731 
	C21.234201,119.504440 21.234201,132.401108 21.234201,145.582123 
	C23.580877,145.582123 25.617447,145.582123 28.217575,145.582123 
	C28.217575,140.607086 28.217577,135.981506 28.217577,131.355927 
	C28.217577,126.886078 28.217575,122.416229 28.217575,117.946381 
	C28.679628,117.887321 29.141684,117.828262 29.603737,117.769203 
	C33.409401,124.936020 37.154572,132.135880 41.043919,139.257004 
	C43.297585,143.383301 45.935501,143.426529 48.272919,139.420044 
	C50.198112,136.120102 51.904278,132.692764 53.723553,129.330566 
	C55.859707,125.382759 58.013187,121.444328 60.159149,117.501823 
	C61.342159,125.876434 61.371780,133.838791 61.324181,141.800674 
	C61.309834,144.200241 61.501881,145.944962 64.714172,145.984375 
	C67.971695,146.024353 68.653824,144.532196 68.611122,141.729752 
	C68.512161,135.234650 68.582397,128.737000 68.583214,122.240379 
	C68.583878,116.962860 68.583344,111.685349 68.583344,105.103218 
	C63.697029,107.598671 57.954880,102.766960 55.082970,110.473480 
z"/>
<path fill="#DABF90" opacity="1.000000" stroke="none" 
	d="
M87.163681,164.920898 
	C86.959930,139.902344 87.014717,114.974747 87.144493,90.047531 
	C87.165550,86.001846 84.541389,86.142784 81.748505,86.147034 
	C60.473663,86.179451 39.198776,86.183510 17.923904,86.190582 
	C14.267418,86.191803 10.610925,86.165443 6.492540,86.085533 
	C6.029387,85.841385 6.028127,85.663528 6.503352,85.228226 
	C31.194227,84.963203 55.409260,85.040192 79.622322,84.857040 
	C83.261002,84.829514 86.890472,83.585716 90.673462,83.359421 
	C90.865997,88.635864 91.158142,93.471832 90.880013,98.274780 
	C90.621025,102.746956 92.421631,103.945557 96.699799,103.915344 
	C120.318474,103.748566 143.938965,103.853836 167.558655,103.792931 
	C169.328476,103.788368 171.096802,103.214058 172.865829,102.904602 
	C172.865829,102.904594 173.067032,103.065193 173.170166,103.145844 
	C173.197861,103.607063 173.122421,103.987648 172.549347,104.669136 
	C147.251114,104.984741 122.450455,104.981567 97.649979,105.048721 
	C95.706070,105.053978 93.763481,105.549927 91.820282,105.817825 
	C88.186241,106.141907 89.008911,108.951149 89.002289,111.116646 
	C88.953423,127.085556 88.993423,143.054718 88.960243,159.023712 
	C88.956490,160.829987 88.671860,162.635681 88.272552,164.793381 
	C87.834137,165.100723 87.640656,165.056335 87.163681,164.920898 
z"/>
<path fill="#DABF90" opacity="1.000000" stroke="none" 
	d="
M4.754865,87.343391 
	C5.044769,110.625298 5.066998,134.231247 5.138128,157.837051 
	C5.144578,159.977570 5.465610,162.117126 5.781096,164.650055 
	C5.519704,165.031921 5.117772,165.020874 4.416610,164.981720 
	C4.084604,151.284164 4.051826,137.614700 4.004840,123.477951 
	C4.160567,111.229584 4.330502,99.448494 4.754865,87.343391 
z"/>
<path fill="#DABF90" opacity="1.000000" stroke="none" 
	d="
M6.322739,165.319366 
	C24.060583,164.978394 42.124043,164.870682 60.187664,164.813171 
	C67.812920,164.788879 75.438515,164.870346 83.522064,164.999298 
	C82.722794,165.387711 81.465912,165.933578 80.207977,165.936005 
	C56.332996,165.982040 32.457886,165.966995 8.582829,165.943054 
	C7.937904,165.942413 7.293218,165.701706 6.322739,165.319366 
z"/>
<path fill="#DABF90" opacity="1.000000" stroke="none" 
	d="
M86.124519,165.148438 
	C86.032822,165.012466 86.429123,164.835556 86.644958,164.844620 
	C86.860794,164.853683 86.659081,165.274231 86.659081,165.274231 
	C86.659081,165.274231 86.216217,165.284409 86.124519,165.148438 
z"/>
<path fill="#B4CBCE" opacity="1.000000" stroke="none" 
	d="
M90.524216,82.904541 
	C86.890472,83.585716 83.261002,84.829514 79.622322,84.857040 
	C55.409260,85.040192 31.194227,84.963203 6.517631,84.961807 
	C6.025083,84.613014 5.994743,84.273186 6.427595,83.566292 
	C31.549267,83.178696 56.207748,83.157089 80.866226,83.138397 
	C87.305885,83.133514 87.311729,83.137672 87.314201,76.489784 
	C87.317551,67.492455 87.351028,58.494884 87.299339,49.497837 
	C87.214203,34.677471 87.071167,19.857441 86.952530,5.037270 
	C86.952530,5.037270 86.960594,4.832742 86.995674,4.734160 
	C87.799904,5.904321 89.141075,7.134653 89.229340,8.449118 
	C89.479256,12.170736 89.150887,15.927897 89.213806,19.668306 
	C89.225510,20.364117 89.998192,21.047125 90.661270,22.309891 
	C89.075821,27.247478 87.262856,31.611601 90.597717,36.572140 
	C90.610580,52.321217 90.567398,67.612885 90.524216,82.904541 
z"/>
<path fill="#DABF90" opacity="1.000000" stroke="none" 
	d="
M90.541672,36.114727 
	C87.262856,31.611601 89.075821,27.247478 90.968460,22.518482 
	C92.145706,22.684484 93.257370,23.215740 94.645660,23.903473 
	C94.922295,24.059950 94.968880,24.547588 94.591682,24.885357 
	C93.156197,26.379955 91.521774,27.384506 91.166870,28.727253 
	C90.544891,31.080427 90.707657,33.641026 90.541672,36.114727 
z"/>
<path fill="#059BD8" opacity="1.000000" stroke="none" 
	d="
M86.487923,5.033216 
	C87.071167,19.857441 87.214203,34.677471 87.299339,49.497837 
	C87.351028,58.494884 87.317551,67.492455 87.314201,76.489784 
	C87.311729,83.137672 87.305885,83.133514 80.866226,83.138397 
	C56.207748,83.157089 31.549267,83.178696 6.432436,83.310150 
	C5.818125,83.329460 5.662166,83.237854 5.260153,83.030121 
	C5.014099,57.186531 5.014099,31.459068 5.014099,5.029161 
	C32.313648,5.029161 59.168480,5.029161 86.487923,5.033216 
M26.455696,41.252167 
	C24.909513,50.425430 27.932861,57.906620 35.835197,62.608311 
	C44.501717,67.764671 53.600407,67.299797 62.260155,62.103165 
	C63.494518,61.362442 64.766655,59.651051 64.889236,58.287159 
	C65.241592,54.366688 65.013504,50.394051 65.013504,46.396240 
	C62.428364,46.396240 60.407169,46.396240 58.029839,46.396240 
	C58.029839,48.301571 58.030300,49.776604 58.029758,51.251637 
	C58.027382,57.750740 57.294579,58.557648 50.781368,59.120918 
	C49.623142,59.221081 48.452938,59.267208 47.291504,59.231873 
	C40.355324,59.020847 34.757614,54.304626 34.009991,48.077824 
	C33.020126,39.833508 36.463001,33.426079 43.913033,32.157539 
	C48.992340,31.292667 54.411884,32.425980 59.679302,32.665852 
	C59.752281,33.115704 59.825256,33.565552 59.898232,34.015404 
	C60.943054,32.600922 61.987877,31.186440 63.011471,29.800697 
	C50.759369,18.899973 31.026188,24.899090 26.455696,41.252167 
z"/>
<path fill="#049AD8" opacity="1.000000" stroke="none" 
	d="
M91.577110,184.890259 
	C91.047569,160.178741 91.048355,135.479095 90.840210,110.781227 
	C90.804733,106.570663 93.395561,106.922646 96.934875,106.784302 
	C105.585983,106.704041 113.346169,106.650452 121.550682,106.714256 
	C126.956886,106.753784 131.918777,106.675926 137.349930,106.678909 
	C145.584595,106.698814 153.350006,106.637871 161.551422,106.696609 
	C165.637405,106.903023 169.287354,106.989769 172.937317,107.076515 
	C172.937317,107.076515 172.989517,107.073158 172.984924,107.047600 
	C173.001892,118.699257 173.023483,130.376465 173.107529,142.517853 
	C173.098328,155.304001 172.877197,167.628006 173.042160,179.946823 
	C173.094559,183.859650 171.991882,185.070450 168.001740,185.041168 
	C142.681183,184.855286 117.358772,184.920395 91.577110,184.890259 
M125.544136,166.044342 
	C132.309280,166.044342 139.074432,166.044342 146.149277,166.044342 
	C146.007126,163.349472 145.907211,161.455185 145.780151,159.046432 
	C137.996017,159.046432 130.755768,159.046432 123.394409,159.046432 
	C123.394409,155.433121 123.394409,152.383682 123.394409,148.735123 
	C130.126480,148.735123 136.517258,148.735123 143.220123,148.735123 
	C143.063843,146.528732 142.952087,144.950836 142.799164,142.791931 
	C136.077011,142.791931 129.686752,142.791931 123.421486,142.791931 
	C123.421486,138.932129 123.421486,135.687744 123.421486,131.974060 
	C130.895569,131.974060 137.975983,131.974060 145.236679,131.974060 
	C145.236679,129.761597 145.236679,128.045319 145.236679,126.382431 
	C135.327499,126.382431 125.792870,126.382431 116.324051,126.382431 
	C116.324051,139.761581 116.324051,152.672104 116.324051,166.044342 
	C119.296738,166.044342 121.928085,166.044342 125.544136,166.044342 
z"/>
<path fill="#C0C3C4" opacity="1.000000" stroke="none" 
	d="
M121.106361,106.596878 
	C113.346169,106.650452 105.585983,106.704041 97.351891,106.674103 
	C95.445930,106.361595 94.013878,106.132614 92.201050,105.860733 
	C93.763481,105.549927 95.706070,105.053978 97.649979,105.048721 
	C122.450455,104.981567 147.251114,104.984741 172.518829,104.959343 
	C172.992767,105.115952 172.999573,105.283257 172.557434,105.705170 
	C168.444122,106.165497 164.779755,106.371208 161.115402,106.576927 
	C153.350006,106.637871 145.584595,106.698814 136.998199,106.501534 
	C131.153595,106.361160 126.129982,106.479019 121.106361,106.596878 
z"/>
<path fill="#AAB9C3" opacity="1.000000" stroke="none" 
	d="
M161.551422,106.696609 
	C164.779755,106.371208 168.444122,106.165497 172.565598,105.956200 
	C173.018677,106.140671 173.014648,106.328720 172.973969,106.796646 
	C169.287354,106.989769 165.637405,106.903023 161.551422,106.696609 
z"/>
<path fill="#DABF90" opacity="1.000000" stroke="none" 
	d="
M5.763043,86.094101 
	C5.873777,86.319962 5.678446,86.561775 5.218603,86.874222 
	C5.185314,86.717957 5.352943,86.439697 5.763043,86.094101 
z"/>
<path fill="#DA9706" opacity="1.000000" stroke="none" 
	d="
M90.597717,36.572140 
	C90.707657,33.641026 90.544891,31.080427 91.166870,28.727253 
	C91.521774,27.384506 93.156197,26.379955 94.600830,25.130114 
	C120.620354,25.080969 146.253525,25.124834 172.339752,25.190430 
	C172.792801,25.212158 172.834854,25.623915 172.908752,25.817268 
	C172.938797,51.334789 172.894943,76.658958 172.858459,102.443863 
	C171.096802,103.214058 169.328476,103.788368 167.558655,103.792931 
	C143.938965,103.853836 120.318474,103.748566 96.699799,103.915344 
	C92.421631,103.945557 90.621025,102.746956 90.880013,98.274780 
	C91.158142,93.471832 90.865997,88.635864 90.673462,83.359421 
	C90.567398,67.612885 90.610580,52.321217 90.597717,36.572140 
M145.453186,82.044884 
	C146.944336,86.979256 150.505112,86.174042 154.860016,85.349068 
	C148.775345,72.315201 142.992767,59.642700 136.913330,47.114246 
	C135.461411,44.122143 128.951874,44.843857 127.399773,48.021893 
	C124.481354,53.997608 121.727882,60.054443 118.944038,66.095161 
	C116.043594,72.388885 113.188263,78.703407 110.090286,85.497742 
	C113.797615,85.710396 117.539108,87.427208 118.735291,83.194580 
	C120.428246,77.204193 124.333092,76.224487 129.635651,76.739616 
	C132.439728,77.012024 135.318802,76.999519 138.119492,76.699707 
	C141.887207,76.296356 144.179642,77.671112 145.453186,82.044884 
z"/>
<path fill="#FDFBE9" opacity="1.000000" stroke="none" 
	d="
M55.265656,110.135239 
	C57.954880,102.766960 63.697029,107.598671 68.583344,105.103218 
	C68.583344,111.685349 68.583878,116.962860 68.583214,122.240379 
	C68.582397,128.737000 68.512161,135.234650 68.611122,141.729752 
	C68.653824,144.532196 67.971695,146.024353 64.714172,145.984375 
	C61.501881,145.944962 61.309834,144.200241 61.324181,141.800674 
	C61.371780,133.838791 61.342159,125.876434 60.159149,117.501823 
	C58.013187,121.444328 55.859707,125.382759 53.723553,129.330566 
	C51.904278,132.692764 50.198112,136.120102 48.272919,139.420044 
	C45.935501,143.426529 43.297585,143.383301 41.043919,139.257004 
	C37.154572,132.135880 33.409401,124.936020 29.603737,117.769203 
	C29.141684,117.828262 28.679628,117.887321 28.217575,117.946381 
	C28.217575,122.416229 28.217577,126.886078 28.217577,131.355927 
	C28.217577,135.981506 28.217575,140.607086 28.217575,145.582123 
	C25.617447,145.582123 23.580877,145.582123 21.234201,145.582123 
	C21.234201,132.401108 21.234201,119.504440 21.234201,106.003731 
	C23.958385,106.003731 26.484749,105.616722 28.813173,106.129143 
	C30.598598,106.522057 32.827824,107.659218 33.661777,109.140007 
	C37.404636,115.785988 40.719181,122.673187 44.786671,130.646378 
	C48.541012,123.290733 51.811989,116.882103 55.265656,110.135239 
z"/>
<path fill="#EBFCFD" opacity="1.000000" stroke="none" 
	d="
M26.607037,40.865616 
	C31.026188,24.899090 50.759369,18.899973 63.011471,29.800697 
	C61.987877,31.186440 60.943054,32.600922 59.898232,34.015404 
	C59.825256,33.565552 59.752281,33.115704 59.679302,32.665852 
	C54.411884,32.425980 48.992340,31.292667 43.913033,32.157539 
	C36.463001,33.426079 33.020126,39.833508 34.009991,48.077824 
	C34.757614,54.304626 40.355324,59.020847 47.291504,59.231873 
	C48.452938,59.267208 49.623142,59.221081 50.781368,59.120918 
	C57.294579,58.557648 58.027382,57.750740 58.029758,51.251637 
	C58.030300,49.776604 58.029839,48.301571 58.029839,46.396240 
	C60.407169,46.396240 62.428364,46.396240 65.013504,46.396240 
	C65.013504,50.394051 65.241592,54.366688 64.889236,58.287159 
	C64.766655,59.651051 63.494518,61.362442 62.260155,62.103165 
	C53.600407,67.299797 44.501717,67.764671 35.835197,62.608311 
	C27.932861,57.906620 24.909513,50.425430 26.607037,40.865616 
z"/>
<path fill="#ECFDFE" opacity="1.000000" stroke="none" 
	d="
M125.051788,166.044342 
	C121.928085,166.044342 119.296738,166.044342 116.324051,166.044342 
	C116.324051,152.672104 116.324051,139.761581 116.324051,126.382431 
	C125.792870,126.382431 135.327499,126.382431 145.236679,126.382431 
	C145.236679,128.045319 145.236679,129.761597 145.236679,131.974060 
	C137.975983,131.974060 130.895569,131.974060 123.421486,131.974060 
	C123.421486,135.687744 123.421486,138.932129 123.421486,142.791931 
	C129.686752,142.791931 136.077011,142.791931 142.799164,142.791931 
	C142.952087,144.950836 143.063843,146.528732 143.220123,148.735123 
	C136.517258,148.735123 130.126480,148.735123 123.394409,148.735123 
	C123.394409,152.383682 123.394409,155.433121 123.394409,159.046432 
	C130.755768,159.046432 137.996017,159.046432 145.780151,159.046432 
	C145.907211,161.455185 146.007126,163.349472 146.149277,166.044342 
	C139.074432,166.044342 132.309280,166.044342 125.051788,166.044342 
z"/>
<path fill="#AAB9C3" opacity="1.000000" stroke="none" 
	d="
M121.550682,106.714264 
	C126.129982,106.479019 131.153595,106.361160 136.528931,106.420685 
	C131.918777,106.675926 126.956886,106.753784 121.550682,106.714264 
z"/>
<path fill="#FDF9E6" opacity="1.000000" stroke="none" 
	d="
M145.275421,81.691414 
	C144.179642,77.671112 141.887207,76.296356 138.119492,76.699707 
	C135.318802,76.999519 132.439728,77.012024 129.635651,76.739616 
	C124.333092,76.224487 120.428246,77.204193 118.735291,83.194580 
	C117.539108,87.427208 113.797615,85.710396 110.090286,85.497742 
	C113.188263,78.703407 116.043594,72.388885 118.944038,66.095161 
	C121.727882,60.054443 124.481354,53.997608 127.399773,48.021893 
	C128.951874,44.843857 135.461411,44.122143 136.913330,47.114246 
	C142.992767,59.642700 148.775345,72.315201 154.860016,85.349068 
	C150.505112,86.174042 146.944336,86.979256 145.275421,81.691414 
M130.725723,57.601681 
	C128.907913,61.531853 127.090088,65.462029 125.187706,69.575027 
	C130.403397,69.575027 134.717712,69.575027 139.760040,69.575027 
	C137.240738,64.234383 135.026871,59.541229 132.573166,54.339619 
	C131.808899,55.611294 131.395554,56.299076 130.725723,57.601681 
z"/>
<path fill="#D39A1E" opacity="1.000000" stroke="none" 
	d="
M130.853958,57.294270 
	C131.395554,56.299076 131.808899,55.611294 132.573166,54.339619 
	C135.026871,59.541229 137.240738,64.234383 139.760040,69.575027 
	C134.717712,69.575027 130.403397,69.575027 125.187706,69.575027 
	C127.090088,65.462029 128.907913,61.531853 130.853958,57.294270 
z"/>
</svg>